<?xml version="1.0" encoding="UTF-8"?>
<svg id="Layer_2" data-name="Layer 2" xmlns="http://www.w3.org/2000/svg" viewBox="0 0 895.73 320.43">
  <defs>
    <style>
      .cls-1 {
        fill: #109a48;
      }

      .cls-2 {
        fill: #575757;
      }
    </style>
  </defs>
  <g id="Layer_1-2" data-name="Layer 1">
    <g>
      <path class="cls-1" d="m511.47,133.23c0,1.4-.77,2.7-2.02,3.33-16.92,8.62-35.75,12.93-56.49,12.93-10.92,0-20.94-1.77-30.06-5.29-9.12-3.53-16.97-8.52-23.56-14.98-6.59-6.46-11.75-14.21-15.48-23.26-3.73-9.05-5.59-19.1-5.59-30.16s1.86-21.6,5.59-30.85c3.73-9.25,8.89-17.14,15.48-23.66,6.59-6.52,14.44-11.55,23.56-15.08,9.12-3.53,19.14-5.29,30.06-5.29s20.9,1.3,30.35,3.89c8.13,2.23,15.53,5.97,22.19,11.22,1.74,1.37,1.88,3.97.32,5.55l-13.23,13.37c-1.36,1.38-3.54,1.46-5.04.23-3.99-3.3-8.64-5.94-13.92-7.9-6.46-2.4-13.28-3.59-20.47-3.59s-13.95,1.3-19.87,3.89c-5.93,2.6-11.02,6.19-15.28,10.78-4.26,4.59-7.56,9.95-9.88,16.08-2.33,6.13-3.49,12.72-3.49,19.77,0,7.59,1.16,14.58,3.49,20.97,2.33,6.39,5.62,11.92,9.88,16.57,4.26,4.66,9.35,8.32,15.28,10.98,5.92,2.67,12.55,3.99,19.87,3.99,6.39,0,12.41-.6,18.07-1.8,4.77-1.01,9.09-2.49,12.97-4.45,1.28-.65,2.11-1.93,2.11-3.36v-27.4c0-2.06-1.67-3.73-3.73-3.73h-21.5c-2.06,0-3.73-1.67-3.73-3.73v-15.31c0-2.06,1.67-3.73,3.73-3.73h46.66c2.06,0,3.73,1.67,3.73,3.73v66.29Z"/>
      <path class="cls-1" d="m534.64,50.04h16.51c2.06,0,3.73,1.67,3.73,3.73v11.45h.4c2.66-5.59,6.46-9.92,11.38-12.98,4.92-3.06,10.58-4.59,16.97-4.59,1.46,0,2.89.13,4.29.4.44.08.89.18,1.33.27,1.72.37,2.96,1.9,2.96,3.66v15.55c0,2.34-2.13,4.11-4.43,3.66-.49-.1-.98-.19-1.47-.27-1.93-.33-3.83-.5-5.69-.5-5.59,0-10.08,1.03-13.48,3.1-3.4,2.07-5.99,4.43-7.79,7.09-1.8,2.67-3,5.33-3.6,7.99-.6,2.67-.9,4.66-.9,5.99v47.59c0,2.06-1.67,3.73-3.73,3.73h-16.51c-2.06,0-3.73-1.67-3.73-3.73V53.77c0-2.06,1.67-3.73,3.73-3.73Z"/>
      <path class="cls-1" d="m623.77,106.35c-2.43,0-4.24,2.29-3.63,4.64,1.32,5,3.83,9.05,7.54,12.13,4.79,3.99,10.58,5.99,17.37,5.99,5.99,0,11.02-1.23,15.08-3.7,3.12-1.89,5.94-4.16,8.47-6.79,1.31-1.37,3.43-1.56,4.95-.42l11.25,8.51c1.75,1.33,2,3.89.51,5.51-4.89,5.31-10.26,9.2-16.1,11.67-6.92,2.93-14.18,4.39-21.77,4.39-7.19,0-13.98-1.2-20.37-3.6-6.39-2.4-11.92-5.79-16.58-10.18-4.66-4.39-8.36-9.69-11.08-15.88-2.73-6.19-4.09-13.08-4.09-20.67s1.36-14.48,4.09-20.67c2.73-6.19,6.42-11.48,11.08-15.88,4.66-4.39,10.18-7.79,16.58-10.18,6.39-2.4,13.18-3.59,20.37-3.59,6.66,0,12.75,1.17,18.27,3.49,5.52,2.33,10.25,5.69,14.18,10.08,3.93,4.39,6.99,9.82,9.19,16.28,2.2,6.46,3.29,13.88,3.29,22.27v2.86c0,2.06-1.67,3.73-3.73,3.73h-64.88Zm40.59-17.97c2.29,0,4.05-2.05,3.7-4.31-.8-5.05-2.87-9.17-6.22-12.37-4.26-4.06-10.19-6.09-17.77-6.09-7.19,0-12.88,2.07-17.07,6.19-3.19,3.14-5.43,7.08-6.73,11.83-.65,2.38,1.13,4.75,3.6,4.75h40.51Z"/>
      <path class="cls-1" d="m730.28,106.35c-2.43,0-4.24,2.29-3.63,4.64,1.32,5,3.83,9.05,7.54,12.13,4.79,3.99,10.58,5.99,17.37,5.99,5.99,0,11.02-1.23,15.08-3.7,3.12-1.89,5.94-4.16,8.47-6.79,1.31-1.37,3.43-1.56,4.95-.42l11.25,8.51c1.75,1.33,2,3.89.51,5.51-4.89,5.31-10.26,9.2-16.1,11.67-6.92,2.93-14.18,4.39-21.77,4.39-7.19,0-13.98-1.2-20.37-3.6-6.39-2.4-11.92-5.79-16.58-10.18-4.66-4.39-8.36-9.69-11.08-15.88-2.73-6.19-4.09-13.08-4.09-20.67s1.36-14.48,4.09-20.67c2.73-6.19,6.42-11.48,11.08-15.88,4.66-4.39,10.18-7.79,16.58-10.18,6.39-2.4,13.18-3.59,20.37-3.59,6.66,0,12.75,1.17,18.27,3.49,5.52,2.33,10.25,5.69,14.18,10.08,3.93,4.39,6.99,9.82,9.19,16.28,2.2,6.46,3.29,13.88,3.29,22.27v2.86c0,2.06-1.67,3.73-3.73,3.73h-64.88Zm40.59-17.97c2.29,0,4.05-2.05,3.7-4.31-.8-5.05-2.87-9.17-6.22-12.37-4.26-4.06-10.19-6.09-17.77-6.09-7.19,0-12.88,2.07-17.07,6.19-3.19,3.14-5.43,7.08-6.73,11.83-.65,2.38,1.13,4.75,3.6,4.75h40.51Z"/>
      <path class="cls-1" d="m811.99,50.04h15.31c2.06,0,3.73,1.67,3.73,3.73v6.77h.4c2.26-4.79,5.65-7.04,9.1-9.19,4.96-3.09,12.26-3.71,20.25-3.71,6.39,0,11.81,1.07,16.28,3.19,4.46,2.13,8.09,4.93,10.88,8.39,2.8,3.46,4.79,7.46,5.99,11.98,1.2,4.53,1.8,9.25,1.8,14.18v59.88c0,2.06-1.67,3.73-3.73,3.73h-16.51c-2.06,0-3.73-1.67-3.73-3.73v-47.89c0-2.66-.13-5.62-.4-8.89-.27-3.26-.97-6.32-2.1-9.19-1.13-2.86-2.9-5.26-5.29-7.19-2.4-1.93-5.66-2.89-9.79-2.89s-7.36.67-10.08,2c-2.73,1.33-4.99,3.13-6.79,5.39-1.8,2.27-3.09,4.86-3.89,7.79-.8,2.93-1.2,5.99-1.2,9.19v51.69c0,2.06-1.67,3.73-3.73,3.73h-16.51c-2.06,0-3.73-1.67-3.73-3.73V53.77c0-2.06,1.67-3.73,3.73-3.73Z"/>
    </g>
    <path class="cls-2" d="m454.96,190.03c29.08,0,52.73,23.66,52.73,52.73s-23.66,52.74-52.73,52.74-52.73-23.66-52.73-52.74,23.66-52.73,52.73-52.73m0-24.73c-42.78,0-77.46,34.68-77.46,77.46s34.68,77.46,77.46,77.46,77.46-34.68,77.46-77.46-34.68-77.46-77.46-77.46h0Z"/>
    <circle class="cls-2" cx="689.52" cy="197.61" r="16.48"/>
    <g>
      <path class="cls-2" d="m553.24,242.77h-25.74c-1.52,0-2.76-1.24-2.76-2.76v-14.79c0-1.52,1.24-2.76,2.76-2.76h25.74c1.52,0,2.76-1.24,2.76-2.76v-10.78c0-6.64.46-12.65,1.39-18.02.93-5.38,2.69-9.99,5.28-13.84,2.59-3.85,6.2-6.8,10.85-8.86,4.65-2.06,10.69-3.09,18.12-3.09,4.46,0,8.66.31,12.58.94,1.44.23,2.47,1.5,2.36,2.95l-1.15,14.68c-.13,1.65-1.67,2.8-3.3,2.49-.65-.13-1.3-.24-1.93-.35-1.59-.27-3.26-.4-4.98-.4-3.32,0-5.97.53-7.97,1.59-1.99,1.06-3.55,2.49-4.68,4.28-1.13,1.79-1.86,3.88-2.19,6.27-.33,2.39-.5,4.91-.5,7.57v14.57c0,1.52,1.24,2.76,2.76,2.76h19.29c1.52,0,2.76,1.24,2.76,2.76v14.79c0,1.52-1.24,2.76-2.76,2.76h-19.29c-1.52,0-2.76,1.24-2.76,2.76v71.4c0,1.52-1.24,2.76-2.76,2.76h-18.38c-1.52,0-2.76-1.24-2.76-2.76v-71.4c0-1.52-1.24-2.76-2.76-2.76Z"/>
      <path class="cls-2" d="m611.74,242.77h-8.94v-20.31h8.94c1.48,0,2.68-1.2,2.68-2.68v-10.86c0-6.64.46-12.65,1.39-18.02.93-5.38,2.69-9.99,5.28-13.84,2.59-3.85,6.2-6.8,10.85-8.86,4.65-2.06,10.69-3.09,18.12-3.09,4.49,0,8.71.32,12.66.95,1.4.22,2.4,1.46,2.29,2.86l-1.16,14.85c-.13,1.6-1.62,2.72-3.2,2.42-.68-.13-1.36-.25-2.02-.37-1.59-.27-3.26-.4-4.98-.4-3.32,0-5.97.53-7.97,1.59-1.99,1.06-3.55,2.49-4.68,4.28-1.13,1.79-1.86,3.88-2.19,6.27-.33,2.39-.5,4.91-.5,7.57v14.64c0,1.48,1.2,2.68,2.68,2.68h23.25c1.48,0,2.68,1.2,2.68,2.68v14.95c0,1.48-1.2,2.68-2.68,2.68h-23.25c-1.48,0-2.68,1.2-2.68,2.68v71.56c0,1.48-1.2,2.68-2.68,2.68h-18.54c-1.48,0-2.68-1.2-2.68-2.68v-71.56c0-1.48-1.2-2.68-2.68-2.68Zm68.88-20.31h17.8c1.68,0,3.05,1.36,3.05,3.05v89.49c0,1.68-1.36,3.05-3.05,3.05h-17.8c-1.68,0-3.05-1.36-3.05-3.05v-89.49c0-1.68,1.36-3.05,3.05-3.05Z"/>
      <path class="cls-2" d="m786.92,248.61c-1.37,1.37-3.57,1.39-5.01.1-2.02-1.81-4.11-3.33-6.27-4.55-3.05-1.72-6.17-2.59-9.36-2.59-4.38,0-8.3.8-11.75,2.39-3.45,1.59-6.41,3.72-8.86,6.37-2.46,2.66-4.32,5.71-5.58,9.16-1.26,3.45-1.89,7.04-1.89,10.75s.63,7.3,1.89,10.75c1.26,3.45,3.12,6.51,5.58,9.16,2.45,2.66,5.41,4.78,8.86,6.37,3.45,1.59,7.37,2.39,11.75,2.39,3.71,0,7.17-.76,10.35-2.29,2.11-1.01,4.02-2.33,5.72-3.95,1.45-1.38,3.76-1.3,5.13.17l10.73,11.54c1.41,1.52,1.3,3.95-.32,5.25-1.67,1.34-3.48,2.55-5.43,3.63-3.12,1.73-6.27,3.12-9.46,4.18-3.19,1.06-6.24,1.82-9.16,2.29-2.92.47-5.44.7-7.57.7-7.17,0-13.94-1.2-20.31-3.59-6.37-2.39-11.88-5.78-16.53-10.16-4.65-4.38-8.33-9.66-11.05-15.83-2.72-6.17-4.08-13.04-4.08-20.61s1.36-14.44,4.08-20.61c2.72-6.17,6.4-11.45,11.05-15.83,4.65-4.38,10.16-7.77,16.53-10.16,6.37-2.39,13.14-3.58,20.31-3.58,6.11,0,12.25,1.16,18.42,3.48,5.03,1.9,9.56,4.7,13.58,8.4,1.51,1.39,1.53,3.77.08,5.22l-11.44,11.44Z"/>
      <path class="cls-2" d="m825.9,278.61c-1.64,0-2.9,1.5-2.57,3.1,1.18,5.69,3.81,10.24,7.88,13.62,4.78,3.98,10.55,5.97,17.32,5.97,5.97,0,10.98-1.23,15.03-3.69,3.39-2.06,6.44-4.56,9.13-7.5.9-.98,2.4-1.09,3.46-.29l12.99,9.82c1.23.93,1.37,2.7.35,3.85-5.1,5.77-10.72,9.95-16.87,12.55-6.9,2.92-14.14,4.38-21.71,4.38-7.17,0-13.94-1.2-20.31-3.59-6.37-2.39-11.88-5.78-16.53-10.16-4.65-4.38-8.33-9.66-11.05-15.83-2.72-6.17-4.08-13.04-4.08-20.61s1.36-14.44,4.08-20.61c2.72-6.17,6.4-11.45,11.05-15.83,4.64-4.38,10.16-7.77,16.53-10.16,6.37-2.39,13.14-3.58,20.31-3.58,6.64,0,12.71,1.16,18.22,3.48,5.51,2.32,10.22,5.68,14.14,10.06,3.92,4.38,6.97,9.79,9.16,16.23,2.19,6.44,3.29,13.84,3.29,22.2v3.96c0,1.44-1.17,2.61-2.61,2.61h-67.22Zm43.15-17.92c1.54,0,2.77-1.34,2.61-2.87-.61-5.69-2.74-10.28-6.39-13.76-4.25-4.05-10.16-6.07-17.72-6.07-7.17,0-12.84,2.06-17.03,6.17-3.52,3.46-5.89,7.92-7.1,13.35-.36,1.62.9,3.17,2.56,3.17h43.08Z"/>
    </g>
    <path class="cls-1" d="m297.87,1.29L16.39,96.36C6.6,99.67,0,108.86,0,119.21v176.91c0,13.32,10.79,24.11,24.11,24.11h281.47c13.32,0,24.11-10.79,24.11-24.11V24.13c0-16.5-16.2-28.12-31.83-22.84Zm-119.47,318.71h-24.73v-76.91c-104.14,13.91-104.14-93.93-104.14-93.93,121.16-29.27,129.21,55.09,128.86,81.36h.01v89.48Zm11.47-104.43c-.9-15.69-5.32-39.73-22.39-57.18,17.31-69.64,112.41-56.9,112.41-56.9,0,103.77-64.31,114.08-90.02,114.08Z"/>
  </g>
</svg>